<?xml version="1.0" encoding="UTF-8" standalone="no"?>
<!-- Created with Inkscape (http://www.inkscape.org/) -->

<svg
   width="100.30601mm"
   height="28.749666mm"
   viewBox="0 0 100.30601 28.749666"
   version="1.1"
   id="svg1"
   sodipodi:docname="locilamp-logo_white.svg"
   inkscape:version="1.4.3 (fcd0343856, 2026-01-01)"
   xmlns:inkscape="http://www.inkscape.org/namespaces/inkscape"
   xmlns:sodipodi="http://sodipodi.sourceforge.net/DTD/sodipodi-0.dtd"
   xmlns="http://www.w3.org/2000/svg"
   xmlns:svg="http://www.w3.org/2000/svg">
  <sodipodi:namedview
     id="namedview1"
     pagecolor="#ffffff"
     bordercolor="#000000"
     borderopacity="0.25"
     inkscape:showpageshadow="2"
     inkscape:pageopacity="0.0"
     inkscape:pagecheckerboard="0"
     inkscape:deskcolor="#d1d1d1"
     inkscape:document-units="mm"
     inkscape:zoom="1.5912297"
     inkscape:cx="245.40769"
     inkscape:cy="111.86317"
     inkscape:window-width="2560"
     inkscape:window-height="1326"
     inkscape:window-x="0"
     inkscape:window-y="0"
     inkscape:window-maximized="1"
     inkscape:current-layer="svg1" />
  <defs
     id="defs1">
    <filter
       style="color-interpolation-filters:sRGB;"
       inkscape:label="Invert"
       id="filter1"
       x="0"
       y="0"
       width="1"
       height="1">
      <feColorMatrix
         values="1 0 0 0 0 0 1 0 0 0 0 0 1 0 0 -0.21 -0.72 -0.07 2 0 "
         result="fbSourceGraphic"
         id="feColorMatrix1" />
      <feColorMatrix
         result="fbSourceGraphicAlpha"
         in="fbSourceGraphic"
         values="0 0 0 -1 0 0 0 0 -1 0 0 0 0 -1 0 0 0 0 1 0"
         id="feColorMatrix2" />
      <feColorMatrix
         id="feColorMatrix3"
         values="1 0 0 0 0 0 1 0 0 0 0 0 1 0 0 -0.21 -0.72 -0.07 2 0 "
         result="fbSourceGraphic"
         in="fbSourceGraphic" />
      <feColorMatrix
         result="fbSourceGraphicAlpha"
         in="fbSourceGraphic"
         values="0 0 0 -1 0 0 0 0 -1 0 0 0 0 -1 0 0 0 0 1 0"
         id="feColorMatrix7" />
      <feColorMatrix
         id="feColorMatrix8"
         values="1 0 0 0 0 0 1 0 0 0 0 0 1 0 0 -0.21 -0.72 -0.07 1 0 "
         result="color2"
         in="fbSourceGraphic" />
    </filter>
    <filter
       style="color-interpolation-filters:sRGB;"
       inkscape:label="Invert"
       id="filter9"
       x="0"
       y="0"
       width="1"
       height="1">
      <feColorMatrix
         values="1 0 0 0 0 0 1 0 0 0 0 0 1 0 0 -0.21 -0.72 -0.07 2 0 "
         result="fbSourceGraphic"
         id="feColorMatrix9" />
      <feColorMatrix
         result="fbSourceGraphicAlpha"
         in="fbSourceGraphic"
         values="0 0 0 -1 0 0 0 0 -1 0 0 0 0 -1 0 0 0 0 1 0"
         id="feColorMatrix11" />
      <feColorMatrix
         id="feColorMatrix12"
         type="hueRotate"
         values="180"
         result="color1"
         in="fbSourceGraphic" />
      <feColorMatrix
         id="feColorMatrix13"
         values="1 0 0 0 0 0 1 0 0 0 0 0 1 0 0 -0.21 -0.72 -0.07 2 0 "
         result="fbSourceGraphic" />
      <feColorMatrix
         result="fbSourceGraphicAlpha"
         in="fbSourceGraphic"
         values="0 0 0 -1 0 0 0 0 -1 0 0 0 0 -1 0 0 0 0 1 0"
         id="feColorMatrix17" />
      <feColorMatrix
         id="feColorMatrix18"
         values="0 0 1 0 0 0 1 0 0 0 1 0 0 0 0 -0.21 -0.72 -0.07 2 0 "
         result="fbSourceGraphic"
         in="fbSourceGraphic" />
      <feColorMatrix
         result="fbSourceGraphicAlpha"
         in="fbSourceGraphic"
         values="0 0 0 -1 0 0 0 0 -1 0 0 0 0 -1 0 0 0 0 1 0"
         id="feColorMatrix21" />
      <feColorMatrix
         id="feColorMatrix22"
         values="0 1 0 0 0 1 0 0 0 0 0 0 1 0 0 -0.21 -0.72 -0.07 2 0 "
         result="fbSourceGraphic"
         in="fbSourceGraphic" />
      <feColorMatrix
         result="fbSourceGraphicAlpha"
         in="fbSourceGraphic"
         values="0 0 0 -1 0 0 0 0 -1 0 0 0 0 -1 0 0 0 0 1 0"
         id="feColorMatrix25" />
      <feColorMatrix
         id="feColorMatrix26"
         values="1 0 0 0 0 0 0 1 0 0 0 1 0 0 0 -0.21 -0.72 -0.07 2 0 "
         result="fbSourceGraphic"
         in="fbSourceGraphic" />
      <feColorMatrix
         result="fbSourceGraphicAlpha"
         in="fbSourceGraphic"
         values="0 0 0 -1 0 0 0 0 -1 0 0 0 0 -1 0 0 0 0 1 0"
         id="feColorMatrix32" />
      <feColorMatrix
         id="feColorMatrix33"
         values="1 0 0 0 0 0 1 0 0 0 0 0 1 0 0 -0.21 -0.72 -0.07 2 0 "
         result="color2"
         in="fbSourceGraphic" />
    </filter>
    <filter
       style="color-interpolation-filters:sRGB;"
       inkscape:label="Invert"
       id="filter10"
       x="0"
       y="0"
       width="1"
       height="1">
      <feColorMatrix
         values="1 0 0 0 0 0 1 0 0 0 0 0 1 0 0 -0.21 -0.72 -0.07 2 0 "
         result="fbSourceGraphic"
         id="feColorMatrix10" />
      <feColorMatrix
         result="fbSourceGraphicAlpha"
         in="fbSourceGraphic"
         values="0 0 0 -1 0 0 0 0 -1 0 0 0 0 -1 0 0 0 0 1 0"
         id="feColorMatrix14" />
      <feColorMatrix
         id="feColorMatrix15"
         type="hueRotate"
         values="180"
         result="color1"
         in="fbSourceGraphic" />
      <feColorMatrix
         id="feColorMatrix16"
         values="1 0 0 0 0 0 1 0 0 0 0 0 1 0 0 -0.21 -0.72 -0.07 2 0 "
         result="fbSourceGraphic" />
      <feColorMatrix
         result="fbSourceGraphicAlpha"
         in="fbSourceGraphic"
         values="0 0 0 -1 0 0 0 0 -1 0 0 0 0 -1 0 0 0 0 1 0"
         id="feColorMatrix19" />
      <feColorMatrix
         id="feColorMatrix20"
         values="0 0 1 0 0 0 1 0 0 0 1 0 0 0 0 -0.21 -0.72 -0.07 2 0 "
         result="fbSourceGraphic"
         in="fbSourceGraphic" />
      <feColorMatrix
         result="fbSourceGraphicAlpha"
         in="fbSourceGraphic"
         values="0 0 0 -1 0 0 0 0 -1 0 0 0 0 -1 0 0 0 0 1 0"
         id="feColorMatrix23" />
      <feColorMatrix
         id="feColorMatrix24"
         values="0 1 0 0 0 1 0 0 0 0 0 0 1 0 0 -0.21 -0.72 -0.07 2 0 "
         result="fbSourceGraphic"
         in="fbSourceGraphic" />
      <feColorMatrix
         result="fbSourceGraphicAlpha"
         in="fbSourceGraphic"
         values="0 0 0 -1 0 0 0 0 -1 0 0 0 0 -1 0 0 0 0 1 0"
         id="feColorMatrix27" />
      <feColorMatrix
         id="feColorMatrix28"
         values="1 0 0 0 0 0 0 1 0 0 0 1 0 0 0 -0.21 -0.72 -0.07 2 0 "
         result="fbSourceGraphic"
         in="fbSourceGraphic" />
      <feColorMatrix
         result="fbSourceGraphicAlpha"
         in="fbSourceGraphic"
         values="0 0 0 -1 0 0 0 0 -1 0 0 0 0 -1 0 0 0 0 1 0"
         id="feColorMatrix34" />
      <feColorMatrix
         id="feColorMatrix35"
         values="1 0 0 0 0 0 1 0 0 0 0 0 1 0 0 -0.21 -0.72 -0.07 2 0 "
         result="color2"
         in="fbSourceGraphic" />
    </filter>
  </defs>
  <g
     id="layer1"
     transform="translate(-65.087507,-148.69585)"
     style="filter:url(#filter1)">
    <path
       id="path1531"
       d="m 66.550977,164.25664 c -0.07441,0 -0.138493,-0.0248 -0.19017,-0.0744 -0.04961,-0.0517 -0.07441,-0.11575 -0.07441,-0.19017 v -14.858 c 0,-0.0744 0.02481,-0.13643 0.07441,-0.18604 0.05168,-0.0517 0.115756,-0.0786 0.19017,-0.0786 h 2.021581 c 0.07442,0 0.136426,0.0269 0.186036,0.0786 0.05168,0.0496 0.07855,0.11162 0.07855,0.18604 v 12.81575 c 0,0.0724 0.03514,0.10749 0.107487,0.10749 h 7.366991 c 0.07131,0 0.132292,0.0269 0.181901,0.0786 0.05168,0.0527 0.07855,0.11472 0.07855,0.18603 v 1.67018 c 0,0.0744 -0.02687,0.1385 -0.07855,0.19017 -0.04961,0.0496 -0.110587,0.0744 -0.181901,0.0744 z m 17.36328,0.21911 c -1.099675,0 -2.074292,-0.22325 -2.922819,-0.66973 -0.849561,-0.44648 -1.504818,-1.08004 -1.967839,-1.90169 -0.460953,-0.82062 -0.690397,-1.7663 -0.690397,-2.83601 v -5.01054 c 0,-1.05524 0.233578,-1.98954 0.7028,-2.80293 0.468188,-0.81236 1.122412,-1.44281 1.963704,-1.88929 0.84336,-0.44649 1.814876,-0.66973 2.914551,-0.66973 1.11311,0 2.091862,0.22324 2.935221,0.66973 0.843359,0.44648 1.498617,1.07693 1.967839,1.88929 0.468188,0.81339 0.702799,1.74769 0.702799,2.80293 v 5.01054 c 0,1.06971 -0.234611,2.01539 -0.702799,2.83601 -0.469222,0.82165 -1.12448,1.45521 -1.967839,1.90169 -0.843359,0.44648 -1.822111,0.66973 -2.935221,0.66973 z m 0,-2.19935 c 0.922941,0 1.662947,-0.28526 2.220019,-0.85576 0.556039,-0.57051 0.835091,-1.32499 0.835091,-2.2655 v -5.11803 c 0,-0.95292 -0.279052,-1.71566 -0.835091,-2.28617 -0.557072,-0.57257 -1.297078,-0.85989 -2.220019,-0.85989 -0.907438,0 -1.639177,0.28732 -2.195215,0.85989 -0.557072,0.57051 -0.835091,1.33325 -0.835091,2.28617 v 5.11803 c 0,0.94051 0.278019,1.69499 0.835091,2.2655 0.556038,0.5705 1.287777,0.85576 2.195215,0.85576 z m 13.583666,2.158 c -1.097607,0 -2.06499,-0.216 -2.902148,-0.64905 -0.835091,-0.43202 -1.480013,-1.03766 -1.934766,-1.81488 -0.452685,-0.77721 -0.677994,-1.67845 -0.677994,-2.70371 v -5.42809 c 0,-1.02526 0.225309,-1.9265 0.677994,-2.70371 0.454753,-0.77721 1.099675,-1.37769 1.934766,-1.80248 0.837158,-0.42374 1.804541,-0.63665 2.902148,-0.63665 1.085205,0 2.046387,0.20567 2.881477,0.61598 0.83509,0.40825 1.48001,0.98702 1.93477,1.73633 0.45475,0.74724 0.68213,1.61127 0.68213,2.59209 0,0.0724 -0.0269,0.13436 -0.0786,0.18604 -0.0527,0.0527 -0.11472,0.0786 -0.18604,0.0786 l -2.02158,0.10748 c -0.17673,0 -0.26458,-0.0796 -0.26458,-0.23978 0,-0.86506 -0.26769,-1.56062 -0.802021,-2.08772 -0.535368,-0.52917 -1.25057,-0.79375 -2.145606,-0.79375 -0.892968,0 -1.611271,0.26458 -2.153873,0.79375 -0.540536,0.5271 -0.810287,1.22266 -0.810287,2.08772 v 5.60586 c 0,0.84956 0.269751,1.53789 0.810287,2.06706 0.542602,0.5271 1.260905,0.78962 2.153873,0.78962 0.895036,0 1.610238,-0.26045 2.145606,-0.78135 0.534331,-0.5209 0.802021,-1.21233 0.802021,-2.07533 0,-0.16226 0.0879,-0.24391 0.26458,-0.24391 l 2.02158,0.0868 c 0.0713,0 0.13333,0.0227 0.18604,0.0661 0.0517,0.0444 0.0786,0.0971 0.0786,0.1571 0,0.99529 -0.22738,1.87069 -0.68213,2.62516 -0.45476,0.75551 -1.09968,1.33842 -1.93477,1.74873 -0.83509,0.41135 -1.796272,0.61598 -2.881477,0.61598 z m 8.485267,-0.17776 c -0.0744,0 -0.13849,-0.0248 -0.19017,-0.0744 -0.0496,-0.0517 -0.0744,-0.11575 -0.0744,-0.19017 v -14.858 c 0,-0.0744 0.0248,-0.13643 0.0744,-0.18604 0.0517,-0.0517 0.11576,-0.0786 0.19017,-0.0786 h 2.02159 c 0.0744,0 0.13642,0.0269 0.18603,0.0786 0.0517,0.0496 0.0786,0.11162 0.0786,0.18604 v 14.858 c 0,0.0744 -0.0269,0.1385 -0.0786,0.19017 -0.0496,0.0496 -0.11162,0.0744 -0.18603,0.0744 z m 5.75883,0 c -0.0744,0 -0.1385,-0.0248 -0.19018,-0.0744 -0.0496,-0.0517 -0.0744,-0.11575 -0.0744,-0.19017 v -14.858 c 0,-0.0744 0.0248,-0.13643 0.0744,-0.18604 0.0517,-0.0517 0.11576,-0.0786 0.19018,-0.0786 h 2.02157 c 0.0744,0 0.13643,0.0269 0.18604,0.0786 0.0517,0.0496 0.0786,0.11162 0.0786,0.18604 v 12.81575 c 0,0.0724 0.0351,0.10749 0.10749,0.10749 h 7.36699 c 0.0713,0 0.13229,0.0269 0.1819,0.0786 0.0517,0.0527 0.0785,0.11472 0.0785,0.18603 v 1.67018 c 0,0.0744 -0.0269,0.1385 -0.0785,0.19017 -0.0496,0.0496 -0.11059,0.0744 -0.1819,0.0744 z m 22.39862,0 c -0.14675,0 -0.24184,-0.0724 -0.28525,-0.21911 l -0.7276,-2.35231 c -0.0279,-0.0579 -0.0641,-0.0868 -0.10749,-0.0868 h -5.80429 c -0.0444,0 -0.0816,0.0289 -0.11163,0.0868 l -0.72347,2.35231 c -0.0444,0.14676 -0.13952,0.21911 -0.28525,0.21911 h -2.19935 c -0.0889,0 -0.15503,-0.0248 -0.19844,-0.0744 -0.0444,-0.0517 -0.0517,-0.12919 -0.0207,-0.23151 l 4.77077,-14.86214 c 0.0434,-0.14573 0.13849,-0.21911 0.28526,-0.21911 h 2.74505 c 0.14882,0 0.24391,0.0734 0.28525,0.21911 l 4.79557,14.86214 c 0.0134,0.0279 0.0207,0.0641 0.0207,0.10749 0,0.13229 -0.0817,0.19844 -0.24392,0.19844 z m -6.35413,-4.79144 c -0.0145,0.0889 0.0145,0.13229 0.0868,0.13229 h 4.46484 c 0.0879,0 0.11679,-0.0434 0.0868,-0.13229 l -2.2655,-7.36286 c -0.0145,-0.0599 -0.0362,-0.0909 -0.0661,-0.0909 -0.0279,0 -0.0496,0.031 -0.0661,0.0909 z m 20.96926,-10.41797 c 0.0744,-0.11782 0.17777,-0.17777 0.31006,-0.17777 h 2.02158 c 0.0713,0 0.13333,0.0269 0.18604,0.0786 0.0517,0.0496 0.0786,0.11162 0.0786,0.18604 v 14.858 c 0,0.0744 -0.0269,0.1385 -0.0786,0.19017 -0.0527,0.0496 -0.11472,0.0744 -0.18604,0.0744 h -2.02158 c -0.0744,0 -0.13849,-0.0248 -0.19017,-0.0744 -0.0496,-0.0517 -0.0744,-0.11575 -0.0744,-0.19017 v -10.48411 c 0,-0.0434 -0.0197,-0.0724 -0.0579,-0.0868 -0.0362,-0.0165 -0.061,-0.002 -0.0744,0.0413 l -2.74919,4.22093 c -0.0724,0.11885 -0.17363,0.17776 -0.30592,0.17776 h -1.01286 c -0.13229,0 -0.23461,-0.0589 -0.30593,-0.17776 l -2.76985,-4.19613 c -0.0165,-0.0434 -0.0434,-0.0589 -0.0785,-0.0455 -0.0362,0.0145 -0.0537,0.0434 -0.0537,0.0868 v 10.46344 c 0,0.0744 -0.0269,0.1385 -0.0786,0.19017 -0.0496,0.0496 -0.11162,0.0744 -0.18604,0.0744 h -2.02158 c -0.0744,0 -0.13849,-0.0248 -0.19017,-0.0744 -0.0496,-0.0517 -0.0744,-0.11575 -0.0744,-0.19017 v -14.858 c 0,-0.0744 0.0248,-0.13643 0.0744,-0.18604 0.0517,-0.0517 0.11576,-0.0786 0.19017,-0.0786 h 2.02158 c 0.13229,0 0.23565,0.0599 0.31006,0.17777 l 3.58014,5.42809 c 0.03,0.031 0.0589,0.0455 0.0868,0.0455 0.03,0 0.0517,-0.0145 0.0662,-0.0455 z m 11.9786,-0.19844 c 0.92294,0 1.73633,0.19017 2.43913,0.57051 0.70486,0.38034 1.25057,0.91984 1.63711,1.61644 0.3886,0.69453 0.58291,1.49655 0.58291,2.40605 0,0.89297 -0.19844,1.68466 -0.59532,2.37299 -0.3948,0.68936 -0.95394,1.22163 -1.67845,1.59576 -0.72553,0.37207 -1.56476,0.55811 -2.51767,0.55811 h -3.514 c -0.0744,0 -0.11162,0.0372 -0.11162,0.11162 v 5.91178 c 0,0.0744 -0.0269,0.1385 -0.0786,0.19017 -0.0496,0.0496 -0.11162,0.0744 -0.18603,0.0744 h -2.02158 c -0.0744,0 -0.1385,-0.0248 -0.19017,-0.0744 -0.0496,-0.0517 -0.0744,-0.11575 -0.0744,-0.19017 v -14.87867 c 0,-0.0744 0.0248,-0.13643 0.0744,-0.18604 0.0517,-0.0517 0.11575,-0.0785 0.19017,-0.0785 z m -0.37207,7.05694 c 0.74621,0 1.34772,-0.21911 1.80247,-0.65733 0.45476,-0.44028 0.68213,-1.02112 0.68213,-1.74046 0,-0.73277 -0.22737,-1.32705 -0.68213,-1.7818 -0.45475,-0.45476 -1.05626,-0.68213 -1.80247,-0.68213 h -3.27422 c -0.0744,0 -0.11162,0.0372 -0.11162,0.11162 v 4.63848 c 0,0.0744 0.0372,0.11162 0.11162,0.11162 z m 0,0"
       style="fill:#231f20;fill-opacity:0;fill-rule:nonzero;stroke:none;stroke-width:0.352778;filter:url(#filter9)"
       aria-label="LOCILAMP"
       transform="matrix(2.2236217,0,0,1.8682098,-79.642484,-129.09918)" />
    <path
       id="path1533"
       d="m 69.544075,168.96643 c 0.06305,0 0.09508,0.031 0.09508,0.0909 v 0.40514 c 0,0.0641 -0.03204,0.0951 -0.09508,0.0951 h -1.847949 c -0.0248,0 -0.03721,0.0124 -0.03721,0.0372 v 5.87044 c 0,0.0641 -0.03204,0.0951 -0.09508,0.0951 h -0.479558 c -0.06408,0 -0.09508,-0.031 -0.09508,-0.0951 v -5.87044 c 0,-0.0248 -0.0124,-0.0372 -0.03721,-0.0372 h -1.769401 c -0.06408,0 -0.09508,-0.031 -0.09508,-0.0951 v -0.40514 c 0,-0.0599 0.03101,-0.0909 0.09508,-0.0909 z m 3.230811,1.76113 c 0.501261,0 0.901237,0.14779 1.198893,0.44235 0.299723,0.29559 0.450618,0.6904 0.450618,1.18649 v 3.10885 c 0,0.0641 -0.03204,0.0951 -0.09508,0.0951 H 73.84976 c -0.06408,0 -0.09508,-0.031 -0.09508,-0.0951 v -2.97656 c 0,-0.34416 -0.106453,-0.62632 -0.318327,-0.84749 -0.209806,-0.22014 -0.481624,-0.33073 -0.81442,-0.33073 -0.345199,0 -0.624252,0.10749 -0.839226,0.32246 -0.212907,0.21291 -0.318327,0.49093 -0.318327,0.83509 v 2.99723 c 0,0.0641 -0.03204,0.0951 -0.09508,0.0951 h -0.47957 c -0.06408,0 -0.09508,-0.031 -0.09508,-0.0951 v -6.40787 c 0,-0.0599 0.03101,-0.0909 0.09508,-0.0909 h 0.479557 c 0.06305,0 0.09508,0.031 0.09508,0.0909 v 2.23655 c 0,0.0114 0.0041,0.0207 0.0124,0.0289 0.01034,0.006 0.01861,0.002 0.0248,-0.0124 0.278019,-0.38861 0.702799,-0.58291 1.273307,-0.58291 z m 6.69003,1.64951 c 0.0248,0.17673 0.03721,0.39584 0.03721,0.65732 v 0.3018 c 0,0.0641 -0.03204,0.0951 -0.09508,0.0951 h -3.042708 c -0.0248,0 -0.03721,0.0124 -0.03721,0.0372 0.01034,0.3452 0.02894,0.56844 0.05374,0.66972 0.06821,0.28112 0.216007,0.50437 0.44235,0.66973 0.22531,0.1633 0.514697,0.24391 0.868164,0.24391 0.264584,0 0.497128,-0.0589 0.698666,-0.17776 0.200504,-0.12093 0.357601,-0.29043 0.471289,-0.5085 0.03514,-0.0579 0.07958,-0.0713 0.132291,-0.0413 l 0.367936,0.21911 c 0.04961,0.031 0.06201,0.0744 0.03721,0.13229 -0.157097,0.30076 -0.392741,0.53743 -0.706934,0.71107 -0.314193,0.17363 -0.675928,0.26045 -1.083138,0.26045 -0.446484,-0.008 -0.821655,-0.11576 -1.124479,-0.32247 -0.300757,-0.2067 -0.516764,-0.49609 -0.649056,-0.86816 -0.113688,-0.29972 -0.169499,-0.73277 -0.169499,-1.29811 0,-0.26459 0.0041,-0.47956 0.0124,-0.64492 0.01034,-0.16744 0.03514,-0.31833 0.07441,-0.45062 0.104386,-0.40721 0.318327,-0.73277 0.640788,-0.97565 0.324528,-0.24495 0.716235,-0.36794 1.174088,-0.36794 0.572575,0 1.012858,0.14469 1.318783,0.43408 0.307991,0.28732 0.501261,0.69453 0.578776,1.2237 z m -1.897558,-1.07487 c -0.305925,0 -0.561206,0.0806 -0.764811,0.23978 -0.204639,0.1602 -0.337964,0.37517 -0.401009,0.64492 -0.03928,0.13229 -0.06408,0.34623 -0.07441,0.64079 0,0.0248 0.0124,0.0372 0.03721,0.0372 h 2.439127 c 0.0248,0 0.03721,-0.0124 0.03721,-0.0372 -0.01137,-0.28112 -0.03101,-0.48163 -0.05788,-0.60358 -0.06925,-0.28112 -0.208772,-0.50436 -0.417545,-0.66973 -0.209806,-0.16743 -0.475423,-0.25218 -0.797884,-0.25218 z m 9.534301,-1.84795 c 0,0.0641 -0.031,0.0951 -0.09095,0.0951 h -3.460253 c -0.0248,0 -0.03721,0.0124 -0.03721,0.0372 v 2.32751 c 0,0.0248 0.0124,0.0372 0.03721,0.0372 h 2.422591 c 0.06305,0 0.09508,0.032 0.09508,0.0951 v 0.39688 c 0,0.061 -0.03204,0.0909 -0.09508,0.0909 h -2.422591 c -0.0248,0 -0.03721,0.0145 -0.03721,0.0413 v 2.88974 c 0,0.0641 -0.03204,0.0951 -0.09508,0.0951 h -0.479557 c -0.06408,0 -0.09508,-0.031 -0.09508,-0.0951 v -6.40787 c 0,-0.0599 0.03101,-0.0909 0.09508,-0.0909 h 4.072102 c 0.05994,0 0.09095,0.031 0.09095,0.0909 z m 2.307869,1.26504 c 0.564307,0 1.00149,0.14469 1.310515,0.43408 0.307991,0.28732 0.463021,0.6687 0.463021,1.14515 v 3.16673 c 0,0.0641 -0.03204,0.0951 -0.09508,0.0951 h -0.479557 c -0.06408,0 -0.09508,-0.031 -0.09508,-0.0951 v -0.38447 c 0,-0.0134 -0.0062,-0.0227 -0.01654,-0.0289 -0.0083,-0.005 -0.01964,-0.002 -0.03307,0.008 -0.157096,0.19017 -0.361735,0.33383 -0.611849,0.42995 -0.251147,0.0961 -0.531233,0.14469 -0.839225,0.14469 -0.444417,0 -0.817521,-0.11265 -1.120345,-0.33899 -0.300756,-0.22531 -0.450618,-0.57155 -0.450618,-1.03767 0,-0.46819 0.170532,-0.83922 0.51263,-1.11207 0.341064,-0.27492 0.816487,-0.41342 1.426269,-0.41342 h 1.095541 c 0.0248,0 0.03721,-0.0124 0.03721,-0.0372 v -0.35554 c 0,-0.32246 -0.08992,-0.57567 -0.268718,-0.76067 -0.179834,-0.18397 -0.457853,-0.27699 -0.835091,-0.27699 -0.300757,0 -0.545703,0.0579 -0.735872,0.17363 -0.188102,0.11576 -0.303857,0.27699 -0.347266,0.4837 -0.01963,0.0641 -0.05684,0.093 -0.111621,0.0868 L 87.706286,171.98 c -0.06925,-0.0134 -0.09819,-0.0382 -0.08682,-0.0744 0.04961,-0.35243 0.236678,-0.63769 0.562239,-0.85576 0.327629,-0.22014 0.736906,-0.33073 1.227832,-0.33073 z m -0.264583,4.34082 c 0.372071,0 0.692464,-0.092 0.963249,-0.27698 0.269751,-0.18397 0.405143,-0.43409 0.405143,-0.74828 v -0.73587 c 0,-0.0248 -0.0124,-0.0372 -0.03721,-0.0372 H 89.48394 c -0.413412,0 -0.746208,0.0858 -0.996322,0.25632 -0.251147,0.16846 -0.376204,0.40307 -0.376204,0.7028 0,0.27905 0.09508,0.48782 0.285253,0.62838 0.192237,0.14056 0.442351,0.21084 0.748275,0.21084 z m 7.096208,-3.05098 c 0.07441,0.28112 0.111621,0.66973 0.111621,1.16582 0,0.51574 -0.04444,0.91571 -0.132292,1.1989 -0.118856,0.3886 -0.325562,0.6966 -0.620117,0.92191 -0.295589,0.22634 -0.663526,0.33899 -1.103809,0.33899 -0.251147,0 -0.479557,-0.0496 -0.686263,-0.14883 -0.206705,-0.10128 -0.379305,-0.24598 -0.516764,-0.43408 -0.0083,-0.0134 -0.01964,-0.0176 -0.03307,-0.0124 -0.01137,0.003 -0.01654,0.0103 -0.01654,0.0207 v 0.40514 c 0,0.0641 -0.03204,0.0951 -0.09508,0.0951 H 92.66928 c -0.06408,0 -0.09508,-0.031 -0.09508,-0.0951 v -6.40787 c 0,-0.0599 0.031,-0.0909 0.09508,-0.0909 h 0.479557 c 0.06305,0 0.09508,0.031 0.09508,0.0909 v 2.22415 c 0,0.0145 0.0041,0.0227 0.0124,0.0248 0.01034,0.003 0.02274,-0.001 0.03721,-0.0124 0.137459,-0.1819 0.310059,-0.32246 0.516765,-0.42168 0.206705,-0.10128 0.435115,-0.15296 0.686262,-0.15296 0.446485,0 0.819589,0.11472 1.120345,0.34313 0.302824,0.22944 0.510564,0.54467 0.624252,0.94671 z m -0.727604,2.30684 c 0.06304,-0.13229 0.107486,-0.28112 0.132291,-0.44648 0.0248,-0.16537 0.03721,-0.39688 0.03721,-0.69454 0,-0.30592 -0.0186,-0.5457 -0.05374,-0.71933 -0.03307,-0.17363 -0.08682,-0.32866 -0.161231,-0.46716 -0.08268,-0.2067 -0.214974,-0.37207 -0.396875,-0.49609 -0.181901,-0.12609 -0.398942,-0.19017 -0.649056,-0.19017 -0.239778,0 -0.446484,0.0651 -0.620117,0.1943 -0.171566,0.12713 -0.293522,0.29766 -0.367936,0.51263 -0.06408,0.1323 -0.110588,0.28422 -0.14056,0.45476 -0.02791,0.16846 -0.04134,0.40514 -0.04134,0.71106 0,0.30386 0.01344,0.53951 0.04134,0.70694 0.02997,0.16536 0.07235,0.31316 0.128157,0.44235 0.08268,0.22117 0.20774,0.39687 0.376205,0.52917 0.170532,0.13229 0.381372,0.19843 0.632519,0.19843 0.264584,0 0.49196,-0.0661 0.682129,-0.19843 0.192237,-0.1323 0.326595,-0.3111 0.40101,-0.53744 z m 6.229081,1.33119 c -0.44132,0 -0.82889,-0.0868 -1.16169,-0.26045 -0.33073,-0.17364 -0.590145,-0.41858 -0.777215,-0.73588 -0.185001,-0.31626 -0.276985,-0.68213 -0.276985,-1.09554 v -2.59209 c 0,-0.40721 0.09198,-0.76894 0.276985,-1.08313 0.18707,-0.3142 0.446485,-0.55811 0.777215,-0.73174 0.3328,-0.17364 0.72037,-0.26045 1.16169,-0.26045 0.43821,0 0.82372,0.0858 1.15755,0.25631 0.33279,0.17157 0.59221,0.41135 0.77721,0.71934 0.18397,0.30592 0.27699,0.66042 0.27699,1.06247 0,0.031 -0.0103,0.0558 -0.0289,0.0744 -0.0165,0.0196 -0.0393,0.0289 -0.0661,0.0289 l -0.47956,0.0289 c -0.0641,0 -0.0951,-0.0289 -0.0951,-0.0868 v -0.0289 c 0,-0.44648 -0.14263,-0.80202 -0.42581,-1.0666 -0.28112,-0.26665 -0.65319,-0.40101 -1.11621,-0.40101 -0.46613,0 -0.8413,0.13539 -1.12448,0.40515 -0.28112,0.27078 -0.42168,0.62425 -0.42168,1.06246 v 2.63757 c 0,0.44131 0.14056,0.79685 0.42168,1.0666 0.28318,0.27078 0.65835,0.40514 1.12448,0.40514 0.46302,0 0.83509,-0.13332 1.11621,-0.40101 0.28318,-0.26665 0.42581,-0.62425 0.42581,-1.07073 v -0.0165 c 0,-0.0579 0.031,-0.0868 0.0951,-0.0868 l 0.47956,0.0289 c 0.063,0 0.0951,0.0289 0.0951,0.0868 0,0.40824 -0.093,0.76791 -0.27699,1.079 -0.185,0.30903 -0.44442,0.54881 -0.77721,0.71934 -0.33383,0.17053 -0.71934,0.25631 -1.15755,0.25631 z m 4.03179,-5.72162 c -0.15193,0 -0.27905,-0.0496 -0.38034,-0.14883 -0.0992,-0.10128 -0.14883,-0.22737 -0.14883,-0.3762 0,-0.1571 0.0496,-0.28319 0.14883,-0.38034 0.10129,-0.0992 0.22841,-0.14883 0.38034,-0.14883 0.14883,0 0.27285,0.0496 0.37207,0.14883 0.10129,0.0971 0.15296,0.22324 0.15296,0.38034 0,0.14883 -0.0517,0.27492 -0.15296,0.3762 -0.0992,0.0992 -0.22324,0.14883 -0.37207,0.14883 z m -0.26458,5.62653 c -0.0641,0 -0.0951,-0.031 -0.0951,-0.0951 v -4.5806 c 0,-0.0599 0.031,-0.0909 0.0951,-0.0909 h 0.47956 c 0.063,0 0.0951,0.031 0.0951,0.0909 v 4.5806 c 0,0.0641 -0.032,0.0951 -0.0951,0.0951 z m 4.35322,-4.29948 c 0,0.0641 -0.032,0.0951 -0.0951,0.0951 h -1.0666 c -0.0248,0 -0.0372,0.0124 -0.0372,0.0372 v 2.78226 c 0,0.30076 0.0672,0.51263 0.20257,0.63666 0.13435,0.12195 0.34726,0.1819 0.63665,0.1819 h 0.23565 c 0.063,0 0.0951,0.032 0.0951,0.0951 v 0.38447 c 0,0.0641 -0.032,0.0951 -0.0951,0.0951 -0.0744,0.005 -0.19017,0.008 -0.34727,0.008 -0.45269,0 -0.79582,-0.0837 -1.02939,-0.25218 -0.23151,-0.17054 -0.34727,-0.48473 -0.34727,-0.94258 v -2.98897 c 0,-0.0248 -0.0124,-0.0372 -0.0372,-0.0372 h -0.57464 c -0.0641,0 -0.0951,-0.031 -0.0951,-0.0951 v -0.3638 c 0,-0.0631 0.031,-0.0951 0.0951,-0.0951 h 0.57464 c 0.0248,0 0.0372,-0.0124 0.0372,-0.0372 v -1.09554 c 0,-0.0599 0.031,-0.0909 0.0951,-0.0909 h 0.45889 c 0.0631,0 0.0951,0.031 0.0951,0.0909 v 1.09554 c 0,0.0248 0.0124,0.0372 0.0372,0.0372 h 1.0666 c 0.063,0 0.0951,0.032 0.0951,0.0951 z m 1.07177,6.1929 c -0.0444,0 -0.0662,-0.032 -0.0662,-0.0951 v -0.3762 c 0,-0.0641 0.031,-0.0951 0.0951,-0.0951 h 0.0372 c 0.24495,-0.006 0.43512,-0.0413 0.57051,-0.10749 0.13436,-0.0661 0.25012,-0.18913 0.34727,-0.36793 0.0961,-0.17984 0.2005,-0.45062 0.31419,-0.81442 0.0134,-0.0248 0.0134,-0.0434 0,-0.0579 l -1.59163,-4.63434 -0.008,-0.0372 c 0,-0.0434 0.0269,-0.0661 0.0827,-0.0661 h 0.50022 c 0.0579,0 0.0961,0.0248 0.11576,0.0744 l 1.2237,3.80752 c 0.005,0.0114 0.0134,0.0165 0.0248,0.0165 0.0134,0 0.0248,-0.005 0.0331,-0.0165 l 1.20303,-3.80752 c 0.0186,-0.0496 0.0579,-0.0744 0.11575,-0.0744 h 0.48783 c 0.0682,0 0.093,0.0351 0.0744,0.10336 l -1.74046,5.07669 c -0.15193,0.42168 -0.29352,0.73277 -0.42581,0.93431 -0.13229,0.2005 -0.29766,0.34003 -0.4961,0.41755 -0.19637,0.0796 -0.47335,0.11988 -0.83095,0.11988 z m 6.66936,-1.88515 c -0.0641,0 -0.0951,-0.031 -0.0951,-0.0951 v -6.40787 c 0,-0.0599 0.031,-0.0909 0.0951,-0.0909 h 0.47956 c 0.063,0 0.0951,0.031 0.0951,0.0909 v 5.88284 c 0,0.0248 0.0124,0.0372 0.0372,0.0372 h 3.32796 c 0.0599,0 0.091,0.031 0.091,0.0909 v 0.39687 c 0,0.0641 -0.031,0.0951 -0.091,0.0951 z m 6.77271,-4.84105 c 0.56431,0 1.00149,0.14469 1.31052,0.43408 0.30799,0.28732 0.46302,0.6687 0.46302,1.14515 v 3.16673 c 0,0.0641 -0.032,0.0951 -0.0951,0.0951 h -0.47956 c -0.0641,0 -0.0951,-0.031 -0.0951,-0.0951 v -0.38447 c 0,-0.0134 -0.006,-0.0227 -0.0165,-0.0289 -0.008,-0.005 -0.0197,-0.002 -0.0331,0.008 -0.1571,0.19017 -0.36174,0.33383 -0.61185,0.42995 -0.25115,0.0961 -0.53124,0.14469 -0.83922,0.14469 -0.44442,0 -0.81753,-0.11265 -1.12035,-0.33899 -0.30076,-0.22531 -0.45062,-0.57155 -0.45062,-1.03767 0,-0.46819 0.17053,-0.83922 0.51263,-1.11207 0.34106,-0.27492 0.81649,-0.41342 1.42627,-0.41342 h 1.09554 c 0.0248,0 0.0372,-0.0124 0.0372,-0.0372 v -0.35554 c 0,-0.32246 -0.0899,-0.57567 -0.26872,-0.76067 -0.17983,-0.18397 -0.45785,-0.27699 -0.83509,-0.27699 -0.30076,0 -0.5457,0.0579 -0.73587,0.17363 -0.18811,0.11576 -0.30386,0.27699 -0.34727,0.4837 -0.0196,0.0641 -0.0568,0.093 -0.11162,0.0868 l -0.5085,-0.0661 c -0.0692,-0.0134 -0.0982,-0.0382 -0.0868,-0.0744 0.0496,-0.35243 0.23668,-0.63769 0.56224,-0.85576 0.32763,-0.22014 0.7369,-0.33073 1.22783,-0.33073 z m -0.26458,4.34082 c 0.37207,0 0.69246,-0.092 0.96325,-0.27698 0.26975,-0.18397 0.40514,-0.43409 0.40514,-0.74828 v -0.73587 c 0,-0.0248 -0.0124,-0.0372 -0.0372,-0.0372 h -0.99219 c -0.41341,0 -0.7462,0.0858 -0.99632,0.25632 -0.25114,0.16846 -0.3762,0.40307 -0.3762,0.7028 0,0.27905 0.0951,0.48782 0.28525,0.62838 0.19224,0.14056 0.44235,0.21084 0.74828,0.21084 z m 8.25272,-4.33255 c 0.47129,0 0.84336,0.14263 1.11621,0.42581 0.27286,0.28112 0.40928,0.66766 0.40928,1.15755 v 3.15433 c 0,0.0641 -0.031,0.0951 -0.091,0.0951 h -0.47129 c -0.0641,0 -0.0951,-0.031 -0.0951,-0.0951 v -3.02203 c 0,-0.34727 -0.0992,-0.62219 -0.29766,-0.82683 -0.19843,-0.2036 -0.45785,-0.30592 -0.77721,-0.30592 -0.33383,0 -0.60255,0.10128 -0.80615,0.30179 -0.20464,0.20154 -0.30593,0.47129 -0.30593,0.81029 v 3.0427 c 0,0.0641 -0.032,0.0951 -0.0951,0.0951 h -0.47956 c -0.0641,0 -0.0951,-0.031 -0.0951,-0.0951 v -3.02203 c 0,-0.34727 -0.0982,-0.62219 -0.29352,-0.82683 -0.19327,-0.2036 -0.45372,-0.30592 -0.78134,-0.30592 -0.33073,0 -0.59532,0.10128 -0.79375,0.30179 -0.19844,0.20154 -0.29766,0.47129 -0.29766,0.81029 v 3.0427 c 0,0.0641 -0.032,0.0951 -0.0951,0.0951 h -0.47956 c -0.0641,0 -0.0951,-0.031 -0.0951,-0.0951 v -4.57646 c 0,-0.0631 0.031,-0.0951 0.0951,-0.0951 h 0.47956 c 0.063,0 0.0951,0.032 0.0951,0.0951 v 0.3762 c 0,0.0114 0.004,0.0196 0.0124,0.0248 0.0103,0.003 0.0228,-0.002 0.0372,-0.0165 0.13746,-0.1819 0.31419,-0.31832 0.52917,-0.40927 0.21704,-0.0909 0.45888,-0.13643 0.72347,-0.13643 0.32452,0 0.60358,0.0661 0.83509,0.19844 0.23358,0.13229 0.41031,0.32453 0.52917,0.57464 0.0134,0.031 0.0289,0.031 0.0455,0 0.14056,-0.25838 0.3359,-0.45165 0.58705,-0.57878 0.25011,-0.12919 0.53536,-0.1943 0.85576,-0.1943 z m 6.6704,1.25264 c 0.093,0.30075 0.14056,0.69866 0.14056,1.19475 0,0.50437 -0.0403,0.89504 -0.11989,1.16996 -0.11369,0.40308 -0.3204,0.7183 -0.62012,0.94671 -0.29766,0.22944 -0.67283,0.34313 -1.12448,0.34313 -0.24598,0 -0.47129,-0.0486 -0.67799,-0.14469 -0.20671,-0.0961 -0.38034,-0.23668 -0.5209,-0.42168 -0.0114,-0.0103 -0.0228,-0.0145 -0.0331,-0.0124 -0.008,0.003 -0.0124,0.0114 -0.0124,0.0248 v 2.21175 c 0,0.0631 -0.032,0.0951 -0.0951,0.0951 h -0.47956 c -0.0641,0 -0.0951,-0.032 -0.0951,-0.0951 v -6.40374 c 0,-0.0631 0.031,-0.0951 0.0951,-0.0951 h 0.47956 c 0.0631,0 0.0951,0.032 0.0951,0.0951 v 0.39274 c 0,0.0145 0.004,0.0227 0.0124,0.0248 0.0103,0.003 0.0217,-0.001 0.0331,-0.0124 0.14056,-0.1819 0.31212,-0.32246 0.51676,-0.42168 0.20361,-0.10128 0.43098,-0.15296 0.68213,-0.15296 0.43822,0 0.80615,0.11369 1.10381,0.339 0.29972,0.22634 0.50643,0.5333 0.62012,0.9219 z m -0.74414,2.38538 c 0.0682,-0.14056 0.11989,-0.29559 0.15296,-0.46716 0.0351,-0.17363 0.0537,-0.41444 0.0537,-0.72347 0,-0.29455 -0.0124,-0.52503 -0.0372,-0.69039 -0.0248,-0.16537 -0.0693,-0.3142 -0.1323,-0.44649 -0.0744,-0.22531 -0.20877,-0.40514 -0.401,-0.53743 -0.19017,-0.13229 -0.41755,-0.19844 -0.68214,-0.19844 -0.25114,0 -0.46198,0.0661 -0.63251,0.19844 -0.16847,0.13229 -0.29353,0.30799 -0.37621,0.52503 -0.0558,0.12712 -0.0971,0.27595 -0.12402,0.44649 -0.0248,0.16846 -0.0372,0.40307 -0.0372,0.70279 0,0.30386 0.0124,0.54157 0.0372,0.71521 0.0269,0.17156 0.0713,0.32246 0.13229,0.45475 0.0765,0.21291 0.20051,0.38344 0.37207,0.51263 0.17363,0.13022 0.38034,0.1943 0.62012,0.1943 0.25011,0 0.46819,-0.062 0.65319,-0.18603 0.18396,-0.12609 0.31832,-0.29352 0.40101,-0.50023 z m 0,0"
       style="fill:#231f20;fill-opacity:0;fill-rule:nonzero;stroke:none;stroke-width:0.352778;filter:url(#filter10)"
       aria-label="The Fab City Lamp"
       transform="matrix(2.2236217,0,0,1.8682098,-79.642484,-129.09918)" />
  </g>
</svg>
